# AST/ASF file generated using VICON BodyLanguage
# -----------------------------------------------
:version 1.10
:name VICON
:units
  mass 1.0
  length 0.45
  angle deg
:documentation
   .ast/.asf automatically generated from VICON data using
   VICON BodyBuilder and BodyLanguage model FoxedUp or BRILLIANT.MOD
:root
   order TX TY TZ RX RY RZ
   axis XYZ
   position 0 0 0  
   orientation 0 0 0 
:bonedata
  begin
     id 1 
     name lhipjoint
     direction 0.566809 -0.746272 0.349008 
     length 2.40479 
     axis 0 0 0  XYZ
  end
  begin
     id 2 
     name lfemur
     direction 0.34202 -0.939693 0  
     length 7.1578  
     axis 0 0 20  XYZ
    dof rx ry rz
    limits (-160.0 20.0)
           (-70.0 70.0)
           (-60.0 70.0)
  end
  begin
     id 3 
     name ltibia
     direction 0.34202 -0.939693 0   
     length 7.49137   
     axis 0 0 20   XYZ
    dof rx
    limits (-10.0 170.0)
  end
  begin
     id 4 
     name lfoot
     direction 0.0665746 -0.182912 0.980873   
     length 2.36784   
     axis -90 7.62852e-016 20   XYZ
    dof rx rz
    limits (-45.0 90.0)
           (-70.0 20.0)
  end
  begin
     id 5 
     name ltoes
     direction 1.53601e-011 -4.22058e-011 1   
     length 1.18966   
     axis -90 7.62852e-016 20   XYZ
    dof rx
    limits (-90.0 20.0)
  end
  begin
     id 6 
     name rhipjoint
     direction -0.550236 -0.756381 0.353735   
     length 2.37265  
     axis 0 0 0  XYZ 
  end
  begin
     id 7 
     name rfemur
     direction -0.34202 -0.939693 0   
     length 7.43386   
     axis 0 0 -20   XYZ
    dof rx ry rz
    limits (-160.0 20.0)
           (-70.0 70.0)
           (-70.0 60.0)
  end
  begin
     id 8 
     name rtibia
     direction -0.34202 -0.939693 0   
     length 7.50908   
     axis 0 0 -20   XYZ
    dof rx
    limits (-10.0 170.0)
 end
 begin
     id 9 
     name rfoot
     direction -0.0683029 -0.187661 0.979856   
     length 2.41173  
     axis -90 -7.62852e-016 -20   XYZ
    dof rx rz
    limits (-45.0 90.0)
           (-20.0 70.0)
  end
  begin
     id 10 
     name rtoes
     direction -1.53528e-011 -4.21968e-011 1   
     length 1.21082   
     axis -90 -7.62852e-016 -20   XYZ
    dof rx
    limits (-90.0 20.0)
  end
  begin
     id 11 
     name lowerback
     direction 0.013823 0.995423 -0.0945635   
     length 2.04495   
     axis 0 0 0   XYZ
    dof rx ry rz
    limits (-20.0 45.0)
           (-30.0 30.0)
           (-30.0 30.0)
  end
  begin
     id 12 
     name upperback
     direction 0.0276657 0.9994 -0.020853   
     length 2.05008   
     axis 0 0 0   XYZ
    dof rx ry rz
    limits (-20.0 45.0)
           (-30.0 30.0)
           (-30.0 30.0)
  end
  begin
     id 13 
     name thorax
     direction 0.019782 0.999531 0.0233827   
     length 2.06488   
     axis 0 0 0   XYZ
    dof rx ry rz
    limits (-20.0 45.0)
           (-30.0 30.0)
           (-30.0 30.0)
  end
  begin
     id 14 
     name lowerneck
     direction -0.0308541 0.994709 0.0979874   
     length 1.75553   
     axis 0 0 0   XYZ
    dof rx ry rz
    limits (-20.0 45.0)
           (-30.0 30.0)
           (-30.0 30.0)
  end
  begin
     id 15 
     name upperneck
     direction 0.0588398 0.995804 -0.0700903   
     length 1.76878   
     axis 0 0 0   XYZ
    dof rx ry rz
    limits (-20.0 45.0)
           (-30.0 30.0)
           (-30.0 30.0)
  end
  begin
     id 16
     name head
     direction 0.0209966 0.999159 -0.0352225  
     length 1.77193  
     axis 0 0 0   XYZ
    dof rx ry rz
    limits (-20.0 45.0)
           (-30.0 30.0)
           (-30.0 30.0)
  end
  begin
     id 17 
     name lclavicle
     direction 0.938182 0.335073 -0.0868338  
     length 3.58396  
     axis 0 0 0   XYZ
    dof ry rz
    limits (-20.0 10.0)
           (0.0 20.0)
  end
  begin
     id 18 
     name lhumerus
     direction 1 -4.48971e-011 -1.26313e-017   
     length 4.983   
     axis 180 -30 -90   XYZ
    dof rx ry rz
    limits (-60.0 90.0)
           (-90.0 90.0)
           (-90.0 90.0)
  end
  begin
     id 19
     name lradius
     direction 1 -4.48948e-011 -5.89033e-027   
     length 3.48356   
     axis 180 -30 -90   XYZ
    dof rx
    limits (-10.0 170.0)
  end
  begin
     id 20
     name lwrist
     direction 1 -4.48977e-011 -1.48983e-026   
     length 1.74178   
     axis 9.0955e-015 90 90   XYZ
    dof ry
    limits (-180.0 0.0)
 end
  begin
     id 21 
     name lhand
     direction 1 -4.49046e-011 -2.98066e-026   
     length 0.715259   
     axis 1.90115e-014 90 90   XYZ
    dof rx rz
    limits (-90.0 90.0)
           (-45.0 45.0)
  end
  begin
     id 22 
     name lfingers
     direction 1 -4.48907e-011 -5.95731e-026   
     length 0.576661   
     axis 3.80223e-014 90 90   XYZ
    dof rx
    limits (0.0 90.0)
  end
  begin
     id 23
     name lthumb
     direction 0.707107 -6.34963e-011 0.707107   
     length 0.827973   
     axis -90 45 -3.84942e-014   XYZ
    dof rx rz
    limits (-45.0 45.0)
           (-45.0 45.0)
  end
  begin
     id 24 
     name rclavicle
     direction -0.909637 0.398485 -0.11735   
     length 3.44819  
     axis 0 0 0   XYZ 
    dof ry rz
    limits (-10.0 20.0)
           (-20.0 0.0)
  end
  begin
     id 25 
     name rhumerus
     direction -1 -4.48978e-011 -1.09333e-027  
     length 5.2419   
     axis 180 30 90   XYZ
    dof rx ry rz
    limits (-90.0 60.0)
           (-90.0 90.0)
           (-90.0 90.0)
  end
  begin
     id 26 
     name rradius
     direction -1 -4.48953e-011 -7.61841e-027   
     length 3.44417   
     axis 180 30 90   XYZ
    dof rx
    limits (-10.0 170.0)
  end
  begin
     id 27 
     name rwrist
     direction -1 -4.48977e-011 -1.48983e-026   
     length 1.72209   
     axis 9.0955e-015 -90 -90   XYZ
    dof ry
    limits (-180.0 0.0)
  end
  begin
     id 28
     name rhand
     direction -1 -4.49027e-011 -2.98038e-026   
     length 0.622529   
     axis 1.90115e-014 -90 -90   XYZ
    dof rx rz
    limits (-90.0 90.0)
           (-45.0 45.0)
  end
  begin
     id 29
     name rfingers
     direction -1 -4.48838e-011 -5.95531e-026   
     length 0.501899   
     axis 3.80223e-014 -90 -90   XYZ
    dof rx
    limits (0.0 90.0)
  end
  begin
     id 30
     name rthumb
     direction -0.707107 -6.34937e-011 0.707107   
     length 0.720629   
     axis -90 -45 3.84942e-014   XYZ
    dof rx rz
    limits (-45.0 45.0)
           (-45.0 45.0)
  end
:hierarchy
  begin
    root lhipjoint rhipjoint lowerback
    lhipjoint lfemur
    lfemur ltibia
    ltibia lfoot
    lfoot ltoes
    rhipjoint rfemur
    rfemur rtibia
    rtibia rfoot
    rfoot rtoes
    lowerback upperback
    upperback thorax
    thorax lowerneck lclavicle rclavicle
    lowerneck upperneck
    upperneck head
    lclavicle lhumerus
    lhumerus lradius
    lradius lwrist
    lwrist lhand lthumb
    lhand lfingers
    rclavicle rhumerus
    rhumerus rradius
    rradius rwrist
    rwrist rhand rthumb
    rhand rfingers
  end

#!OML:ASF F:\VICON\USERDATA\Patient Classification 1\PLAYGROUND\JustinFriday\JustinFriday.ASF
:FULLY-SPECIFIED
:DEGREES
282
root -26.2581 17.2913 -3.31227 194.54 39.3018 -164.223
lowerback 5.75558 3.00173 13.0789
upperback 10.6944 5.16838 4.70528
thorax 8.97384 3.90317 -1.94437
lowerneck -7.26623 -11.2545 -7.29531
upperneck 15.0675 -16.1802 13.6686
head 7.56521 -7.03273 4.04289
rclavicle 4.8901e-014 3.33958e-014
rhumerus 21.5604 -21.1482 -62.6653
rradius 40.9453
rwrist 19.6533
rhand -30.3304 -23.4933
rfingers 7.12502
rthumb -3.63653 -53.442
lclavicle 4.8901e-014 3.33958e-014
lhumerus -23.5883 4.8837 78.0968
lradius 36.7064
lwrist 5.56167
lhand -13.6643 -7.45482
lfingers 7.12502
lthumb 12.4528 22.1542
rfemur -2.35145 19.368 32.69
rtibia 31.6987
rfoot -15.4907 17.3248
rtoes 26.7116
lfemur -27.9592 -5.45926 9.26256
ltibia 27.6457
lfoot 0.131617 -12.5373
ltoes -3.65787
283
root -26.2933 17.2444 -3.49955 195.189 40.7779 -162.53
lowerback 6.64427 2.81506 14.0268
upperback 10.8837 5.14056 5.10536
thorax 8.74849 3.98016 -2.07383
lowerneck -6.67983 -10.6916 -7.9959
upperneck 14.8417 -15.3733 14.0906
head 7.38638 -6.69015 4.42259
rclavicle 7.35503e-014 5.56597e-015
rhumerus 23.0553 -20.3926 -62.6369
rradius 39.1759
rwrist 19.4129
rhand -30.5326 -24.2938
rfingers 7.12502
rthumb -3.83182 -54.2391
lclavicle 7.35503e-014 5.56597e-015
lhumerus -24.5052 6.36114 78.0219
lradius 38.1643
lwrist 3.37244
lhand -13.0354 -6.11274
lfingers 7.12502
lthumb 13.0591 23.4584
rfemur -1.63035 20.6748 33.4544
rtibia 32.3474
rfoot -15.4924 17.6896
rtoes 26.3151
lfemur -27.0539 -4.49812 9.72031
ltibia 29.7087
lfoot -3.18036 -13.0378
ltoes -8.43049
284
root -26.3339 17.2069 -3.63377 195.918 41.2986 -161.719
lowerback 7.46022 2.68307 14.2786
upperback 10.8456 5.14373 5.17014
thorax 8.25805 3.98581 -2.21874
lowerneck -6.80586 -10.5825 -7.47196
upperneck 14.5801 -15.2772 14.224
head 7.28313 -6.61091 4.39144
rclavicle -3.81667e-014 4.77083e-015
rhumerus 24.6952 -21.0797 -63.5697
rradius 37.498
rwrist 19.6141
rhand -29.9935 -26.1087
rfingers 7.12502
rthumb -3.31116 -56.0628
lclavicle -3.81667e-014 4.77083e-015
lhumerus -22.8344 3.22311 77.9748
lradius 35.5967
lwrist 5.43528
lhand -13.3677 -4.53989
lfingers 7.12502
lthumb 12.7388 25.0515
rfemur -1.95665 21.2654 33.5835
rtibia 33.328
rfoot -15.3504 17.7363
rtoes 25.3866
lfemur -27.4793 -2.91119 9.5236
ltibia 31.4405
lfoot -6.26153 -13.6144
ltoes -13.8453
285
root -26.379 17.1891 -3.74178 196.416 41.2718 -161.607
lowerback 8.17415 3.20781 14.9272
upperback 10.0293 5.99823 5.16837
thorax 7.1526 4.33062 -2.69407
lowerneck -6.53383 -11.6399 -6.30793
upperneck 15.2881 -16.7341 13.1592
head 7.43658 -7.28718 3.70413
rclavicle 7.55382e-014 -2.70347e-014
rhumerus 22.9663 -23.3919 -62.2509
rradius 36.7956
rwrist 19.1354
rhand -28.2262 -24.8028
rfingers 7.12502
rthumb -1.60435 -54.7766
lclavicle 7.55382e-014 -2.70347e-014
lhumerus -22.8699 0.67719 77.7334
lradius 35.508
lwrist 0.93284
lhand -11.6 -4.53751
lfingers 7.12502
lthumb 14.4424 24.9399
rfemur -2.74431 21.2412 33.2286
rtibia 34.2843
rfoot -14.8692 17.7021
rtoes 27.2035
lfemur -28.4421 -1.79345 8.9749
ltibia 32.7934
lfoot -4.29076 -13.9585
ltoes 2.44368
286
root -26.4227 17.1815 -3.86838 196.282 41.4952 -161.905
lowerback 8.86427 2.33317 14.4014
upperback 10.1021 4.94631 5.19627
thorax 6.59512 3.7617 -2.47164
lowerneck -9.20565 -10.9456 -6.00668
upperneck 17.6236 -15.8071 11.91
head 8.45153 -6.70309 3.21801
rclavicle -8.82604e-014 -1.66979e-014
rhumerus 25.2804 -22.9743 -63.9507
rradius 35.6046
rwrist 18.8872
rhand -25.6171 -21.3539
rfingers 7.12502
rthumb 0.915531 -51.3317
lclavicle -8.82604e-014 -1.66979e-014
lhumerus -24.0322 4.8834 77.4953
lradius 38.2752
lwrist 3.13953
lhand -18.455 -7.85664
lfingers 7.12502
lthumb 7.83123 21.9783
rfemur -3.05578 21.2218 32.547
rtibia 35.197
rfoot -14.065 17.8929
rtoes 28.3377
lfemur -28.6419 -1.18568 7.99178
ltibia 33.6229
lfoot -5.77002 -14.1718
ltoes -7.12931
287
root -26.4545 17.1919 -4.01306 195.917 42.3626 -162.397
lowerback 9.86468 2.34376 13.763
upperback 9.30114 5.10574 5.57887
thorax 5.05074 3.64923 -1.90453
lowerneck -5.42668 -10.7469 -8.32411
upperneck 16.7899 -15.3828 13.1706
head 7.74422 -6.71667 4.24286
rclavicle 2.26615e-014 -1.35969e-013
rhumerus 25.1307 -23.4065 -63.7712
rradius 34.6202
rwrist 18.6194
rhand -23.8832 -21.559
rfingers 7.12502
rthumb 2.59012 -51.5231
lclavicle 2.26615e-014 -1.35969e-013
lhumerus -25.6737 6.89092 76.9258
lradius 39.336
lwrist -2.88083
lhand -10.8599 -4.21423
lfingers 7.12502
lthumb 15.1555 25.2108
rfemur -3.22663 21.7044 31.5578
rtibia 36.2731
rfoot -13.5333 18.0452
rtoes 30.377
lfemur -28.0805 -1.83849 6.90535
ltibia 34.0936
lfoot -8.09841 -12.1115
ltoes -16.3511
288
root -26.4733 17.2265 -4.17717 195.384 43.7299 -163.142
lowerback 10.6005 2.38343 12.8793
upperback 9.30926 5.20161 5.45679
thorax 4.57516 3.62139 -1.6383
lowerneck -5.16616 -10.4996 -8.88103
upperneck 16.5437 -15.0453 13.5795
head 7.65423 -6.58296 4.51873
rclavicle 7.83212e-014 2.62396e-014
rhumerus 26.3369 -24.4616 -65.0513
rradius 34.1577
rwrist 18.878
rhand -23.5367 -24.8141
rfingers 7.12502
rthumb 2.92484 -54.7737
lclavicle 7.83212e-014 2.62396e-014
lhumerus -25.4483 6.69193 76.606
lradius 38.6311
lwrist -3.8199
lhand -10.772 -6.5238
lfingers 7.12502
lthumb 15.2401 22.8948
rfemur -3.5209 22.385 30.1952
rtibia 37.4751
rfoot -13.9405 17.5519
rtoes 21.4113
lfemur -27.0225 -4.41809 5.82009
ltibia 34.4167
lfoot -9.59796 -7.94849
ltoes -20.5779
289
root -26.5009 17.2253 -4.26818 194.933 44.0885 -164.435
lowerback 11.47 2.56694 11.4748
upperback 8.61136 5.44274 5.48299
thorax 3.20284 3.54837 -1.02069
lowerneck -4.06845 -10.4974 -8.69256
upperneck 16.5021 -15.0192 13.3673
head 7.40782 -6.60868 4.48158
rclavicle 3.49861e-014 -5.80451e-014
rhumerus 24.8729 -24.6471 -63.7958
rradius 34.7702
rwrist 17.7118
rhand -22.911 -26.8694
rfingers 7.12502
rthumb 3.529 -56.8199
lclavicle 3.49861e-014 -5.80451e-014
lhumerus -25.2285 0.984575 78.4629
lradius 36.5456
lwrist 8.08786
lhand -22.1097 -11.4556
lfingers 7.12502
lthumb 4.30288 18.4807
rfemur -4.76599 22.295 28.7344
rtibia 38.9699
rfoot -14.0948 16.6857
rtoes 18.843
lfemur -27.3736 -3.40986 4.2305
ltibia 34.7055
lfoot -9.7578 -8.81733
ltoes -20.0079
290
root -26.5222 17.2282 -4.39092 194.034 44.8496 -165.952
lowerback 12.8345 2.87702 9.2448
upperback 8.03871 5.82599 5.77522
thorax 1.59964 3.54217 0.274442
lowerneck -4.90281 -10.599 -7.72173
upperneck 17.8308 -14.9833 11.4431
head 7.75403 -6.58403 3.6647
rclavicle -8.15017e-014 4.13472e-014
rhumerus 22.6688 -22.7053 -60.6838
rradius 35.8994
rwrist 14.701
rhand -21.073 -25.9832
rfingers 7.12502
rthumb 5.30383 -55.8969
lclavicle -8.15017e-014 4.13472e-014
lhumerus -27.1936 -0.989199 80.8092
lradius 39.2062
lwrist 21.3142
lhand -29.4861 -17.2649
lfingers 7.12502
lthumb -2.82115 12.6962
rfemur -5.68459 22.2937 26.9842
rtibia 40.6708
rfoot -11.9848 18.1684
rtoes 24.7117
lfemur -27.2367 -1.15723 2.07741
ltibia 34.8927
lfoot -9.81082 -10.8926
ltoes -17.6048
291
root -26.5351 17.2464 -4.53709 192.739 45.8533 -167.691
lowerback 13.4466 2.9814 8.1152
upperback 7.88827 5.84471 5.21332
thorax 1.05088 3.47391 0.231076
lowerneck -4.34517 -10.5256 -6.95586
upperneck 17.8072 -14.887 11.0946
head 7.54762 -6.52819 3.47772
rclavicle -1.98785e-015 9.54166e-015
rhumerus 23.3245 -24.2337 -62.0707
rradius 35.1612
rwrist 15.968
rhand -19.8855 -26.821
rfingers 7.12502
rthumb 6.45036 -56.7028
lclavicle -1.98785e-015 9.54166e-015
lhumerus -27.0846 -2.67352 80.857
lradius 38.9135
lwrist 26.5318
lhand -30.8541 -20.2536
lfingers 7.12502
lthumb -4.14227 9.6859
rfemur -6.42318 22.4465 25.0846
rtibia 42.7085
rfoot -11.5934 17.4723
rtoes 25.0782
lfemur -26.6321 0.371832 -0.181818
ltibia 34.9638
lfoot -11.2686 -11.397
ltoes -22.4944
292
root -26.5399 17.2712 -4.67655 191.467 46.981 -169.532
lowerback 13.6957 2.92183 6.57925
upperback 8.00844 5.5493 4.64119
thorax 0.93282 3.26723 0.487805
lowerneck -3.58625 -10.0065 -6.36398
upperneck 17.0557 -14.2047 11.1807
head 7.06141 -6.21898 3.53224
rclavicle -2.94201e-014 5.56597e-015
rhumerus 24.1503 -24.0557 -63.2156
rradius 34.7833
rwrist 16.0445
rhand -19.8402 -27.4117
rfingers 7.12502
rthumb 6.4941 -57.2922
lclavicle -2.94201e-014 5.56597e-015
lhumerus -25.2803 4.00696 76.5352
lradius 37.7281
lwrist 4.08881
lhand -17.9963 -9.45341
lfingers 7.12502
lthumb 8.27386 20.3646
rfemur -7.2462 22.7344 23.1561
rtibia 44.5616
rfoot -11.3793 16.7302
rtoes 23.4171
lfemur -25.9653 1.13484 -2.31012
ltibia 34.8771
lfoot -12.7057 -10.6136
ltoes -27.8519
293
root -26.5523 17.2953 -4.736 190.495 47.0932 -171.57
lowerback 14.3531 2.70512 4.16184
upperback 7.50524 4.9828 4.63916
thorax -0.183653 2.85567 1.80254
lowerneck -4.37956 -9.91949 -7.64649
upperneck 18.7965 -14.1142 11.5857
head 7.88967 -6.11127 3.83367
rclavicle -7.95139e-014 -9.46215e-014
rhumerus 23.8212 -21.8059 -62.4601
rradius 34.8226
rwrist 14.4842
rhand -20.163 -27.3914
rfingers 7.12502
rthumb 6.18243 -57.2812
lclavicle -7.95139e-014 -9.46215e-014
lhumerus -25.2237 6.61546 75.0722
lradius 37.6135
lwrist -3.23248
lhand -10.0804 -4.68467
lfingers 7.12502
lthumb 15.9062 24.6821
rfemur -8.72551 22.4554 21.4688
rtibia 46.558
rfoot -11.1484 15.4466
rtoes 18.2464
lfemur -26.3974 1.69714 -4.08251
ltibia 34.5828
lfoot -10.1306 -12.773
ltoes -15.5818
294
root -26.5449 17.3417 -4.89662 189.622 48.4565 -172.033
lowerback 15.5504 3.08058 2.90355
upperback 6.97822 5.41263 5.3008
thorax -1.55382 3.00711 3.01842
lowerneck -2.34769 -9.81908 -9.94259
upperneck 19.018 -13.8905 12.1649
head 7.78781 -6.16257 4.51583
rclavicle -1.54654e-013 6.52014e-014
rhumerus 21.9268 -19.3608 -59.5234
rradius 34.9614
rwrist 12.8329
rhand -18.7811 -26.8185
rfingers 7.12502
rthumb 7.51645 -56.6649
lclavicle -1.54654e-013 6.52014e-014
lhumerus -26.7504 8.2134 75.4505
lradius 38.0321
lwrist -5.40108
lhand -7.0946 -4.90045
lfingers 7.12502
lthumb 18.7798 24.213
rfemur -8.68051 23.0895 20.8069
rtibia 48.1111
rfoot -10.1832 15.0765
rtoes 17.5183
lfemur -24.8134 1.31634 -4.86263
ltibia 34.1592
lfoot -7.94637 -12.4014
ltoes -0.413004
